<svg viewBox="0 0 700 700" xmlns="http://www.w3.org/2000/svg"><g fill="#f6851f"><path d="m0 50v600c0 27.14 21.63 49.22 48.59 49.96v-699.92c-26.96.74-48.59 22.82-48.59 49.96z"/><path d="m496.18 240.82c0-49.59-14.61-87.98-43.8-115.19-29.2-27.2-73.8-40.81-133.8-40.81h-160.81v316.81h160.81c59.19 0 103.59-14.59 133.19-43.8s44.41-68.2 44.41-117.02z"/><path d="m157.78 489.22v210.78h254.77l-122.77-210.78z"/><path d="m500 0h-110.35c33.24 5.19 62.96 14.26 89.13 27.22 43.59 21.61 76.2 50.81 97.8 87.61s32.41 78.8 32.41 125.98c0 57.61-16.61 108.41-49.8 152.41-33.2 44-83 73.2-149.41 87.59l129.09 215.4c91.85-18.09 161.13-99.06 161.13-196.21v-300c0-110.46-89.54-200-200-200z"/></g><path d="m559.18 393.22c33.19-44 49.8-94.8 49.8-152.41 0-47.19-10.81-89.19-32.41-125.98s-54.2-66-97.8-87.61c-26.17-12.96-55.89-22.04-89.13-27.22h-339.64c-.47 0-.94.02-1.41.04v699.93c.47.01.94.04 1.41.04h107.78v-210.78h132l122.77 210.78h87.45c13.3 0 26.29-1.31 38.87-3.79l-129.09-215.4c66.41-14.39 116.2-43.59 149.41-87.59zm-401.41 8.41v-316.81h160.81c60 0 104.59 13.61 133.8 40.81 29.19 27.2 43.8 65.59 43.8 115.19s-14.81 87.81-44.41 117.02-74 43.8-133.19 43.8h-160.81z" fill="#fff"/></svg>