<?xml version="1.0" encoding="utf-8"?>
<!-- Generator: Adobe Illustrator 27.8.0, SVG Export Plug-In . SVG Version: 6.00 Build 0)  -->
<svg version="1.1" id="Layer_1" xmlns="http://www.w3.org/2000/svg" xmlns:xlink="http://www.w3.org/1999/xlink" x="0px" y="0px"
	 viewBox="0 0 1546.31 700" style="enable-background:new 0 0 1546.31 700;" xml:space="preserve">
<style type="text/css">
	.st0{fill:#F6851F;}
	.st1{fill:#FFFFFF;}
	.st2{fill:#225167;}
	.st3{font-family:'Poppins-Bold';}
	.st4{font-size:276.7059px;}
	.st5{font-family:'Poppins-Black';}
	.st6{font-size:157.7417px;}
</style>
<g>
	<path class="st0" d="M0,50v600c0,27.14,21.63,49.22,48.59,49.96V0.04C21.63,0.78,0,22.86,0,50z"/>
	<path class="st0" d="M496.18,240.82c0-49.59-14.61-87.98-43.8-115.19c-29.2-27.2-73.8-40.81-133.8-40.81H157.78v316.81h160.81
		c59.19,0,103.59-14.59,133.19-43.8S496.18,289.63,496.18,240.82z"/>
	<polygon class="st0" points="157.78,489.22 157.78,700 412.55,700 289.78,489.22 	"/>
	<path class="st0" d="M500,0H389.65c33.24,5.19,62.96,14.26,89.13,27.22c43.59,21.61,76.2,50.81,97.8,87.61s32.41,78.8,32.41,125.98
		c0,57.61-16.61,108.41-49.8,152.41c-33.2,44-83,73.2-149.41,87.59l129.09,215.4C630.72,678.12,700,597.16,700,500V200
		C700,89.54,610.46,0,500,0z"/>
	<path class="st1" d="M559.18,393.22c33.19-44,49.8-94.8,49.8-152.41c0-47.19-10.81-89.19-32.41-125.98s-54.2-66-97.8-87.61
		C452.6,14.26,422.89,5.19,389.65,0H50c-0.47,0-0.94,0.02-1.41,0.04v699.93c0.47,0.01,0.94,0.04,1.41,0.04h107.78V489.22h132
		L412.55,700H500c13.3,0,26.29-1.31,38.87-3.79l-129.09-215.4C476.18,466.43,525.98,437.22,559.18,393.22z M157.78,401.63V84.82
		h160.81c60,0,104.59,13.61,133.8,40.81c29.19,27.2,43.8,65.59,43.8,115.19c0,48.81-14.81,87.81-44.41,117.02s-74,43.8-133.19,43.8
		H157.78z"/>
</g>
<text transform="matrix(1 0 0 1 749.2546 463.6194)" class="st2 st3 st4">eady</text>
<text transform="matrix(1 0 0 1 749.2546 666.9348)" class="st2 st5 st6">Interview</text>
</svg>
