<svg viewBox="0 0 1546.31 700" xmlns="http://www.w3.org/2000/svg"><path d="m0 50v600c0 27.14 21.63 49.22 48.59 49.96v-699.92c-26.96.74-48.59 22.82-48.59 49.96z" fill="#f6851f"/><path d="m496.18 240.82c0-49.59-14.61-87.98-43.8-115.19-29.2-27.2-73.8-40.81-133.8-40.81h-160.81v316.81h160.81c59.19 0 103.59-14.59 133.19-43.8 29.59-29.2 44.41-68.2 44.41-117.02z" fill="#f6851f"/><path d="m157.78 489.22v210.78h254.77l-122.77-210.78z" fill="#f6851f"/><path d="m500 0h-110.35c33.24 5.19 62.96 14.26 89.13 27.22 43.59 21.61 76.2 50.81 97.8 87.61s32.41 78.8 32.41 125.98c0 57.61-16.61 108.41-49.8 152.41-33.2 44-83 73.2-149.41 87.59l129.09 215.4c91.85-18.09 161.13-99.06 161.13-196.21v-300c0-110.46-89.54-200-200-200z" fill="#f6851f"/><path d="m559.18 393.22c33.19-44 49.8-94.8 49.8-152.41 0-47.19-10.81-89.19-32.41-125.98s-54.2-66-97.8-87.61c-26.17-12.96-55.89-22.04-89.13-27.22h-339.64c-.47 0-.94.02-1.41.04v699.93c.47.01.94.04 1.41.04h107.78v-210.78h132l122.77 210.78h87.45c13.3 0 26.29-1.31 38.87-3.79l-129.09-215.4c66.41-14.39 116.2-43.59 149.41-87.59zm-401.41 8.41v-316.81h160.81c60 0 104.59 13.61 133.8 40.81 29.19 27.2 43.8 65.59 43.8 115.19s-14.81 87.81-44.41 117.02c-29.59 29.2-74 43.8-133.19 43.8h-160.81z" fill="#fff"/><g fill="#225167"><path d="m911.13 397.76h-107.08c.73 9.59 3.83 16.93 9.27 22 5.44 5.08 12.13 7.61 20.06 7.61 11.8 0 20.01-4.98 24.63-14.94h50.36c-2.58 10.15-7.24 19.28-13.97 27.39-6.74 8.12-15.18 14.48-25.32 19.09-10.15 4.61-21.49 6.92-34.04 6.92-15.13 0-28.6-3.23-40.4-9.69-11.81-6.46-21.03-15.68-27.67-27.67s-9.96-26.01-9.96-42.06 3.27-30.07 9.82-42.06c6.54-11.99 15.72-21.21 27.53-27.67 11.8-6.46 25.36-9.69 40.68-9.69s28.22 3.14 39.85 9.41c11.62 6.27 20.71 15.22 27.26 26.84s9.82 25.18 9.82 40.68c0 4.43-.28 9.04-.83 13.84zm-47.59-26.29c0-8.12-2.77-14.57-8.3-19.37-5.53-4.79-12.45-7.19-20.75-7.19s-14.62 2.31-20.06 6.92-8.81 11.16-10.1 19.65h59.21z"/><path d="m936.45 344.36c5.99-11.99 14.16-21.21 24.49-27.67s21.86-9.69 34.59-9.69c10.88 0 20.43 2.21 28.64 6.64s14.53 10.24 18.96 17.43v-21.86h47.32v154.4h-47.32v-21.86c-4.61 7.19-11.03 13.01-19.23 17.43-8.21 4.43-17.76 6.64-28.64 6.64-12.55 0-23.98-3.27-34.31-9.82s-18.5-15.86-24.49-27.95c-6-12.08-8.99-26.05-8.99-41.92s3-29.79 8.99-41.78zm96.85 14.11c-6.55-6.82-14.53-10.24-23.94-10.24s-17.39 3.37-23.93 10.1c-6.55 6.74-9.82 16.01-9.82 27.81s3.27 21.17 9.82 28.09 14.53 10.38 23.93 10.38 17.39-3.41 23.94-10.24c6.55-6.82 9.82-16.14 9.82-27.95s-3.28-21.12-9.82-27.95z"/><path d="m1124.32 344.36c5.99-11.99 14.16-21.21 24.49-27.67s21.86-9.69 34.59-9.69c10.14 0 19.41 2.12 27.81 6.36 8.39 4.25 14.99 9.96 19.79 17.16v-71.67h47.32v204.76h-47.32v-22.14c-4.43 7.38-10.75 13.28-18.96 17.71s-17.76 6.64-28.64 6.64c-12.73 0-24.26-3.27-34.59-9.82s-18.5-15.86-24.49-27.95c-6-12.08-8.99-26.05-8.99-41.92s3-29.79 8.99-41.78zm96.85 14.11c-6.55-6.82-14.53-10.24-23.94-10.24s-17.39 3.37-23.93 10.1c-6.55 6.74-9.82 16.01-9.82 27.81s3.27 21.17 9.82 28.09 14.53 10.38 23.93 10.38 17.39-3.41 23.94-10.24c6.55-6.82 9.82-16.14 9.82-27.95s-3.28-21.12-9.82-27.95z"/><path d="m1470.34 309.22-96.85 227.73h-50.91l35.42-78.58-62.81-149.15h52.85l35.7 96.57 35.42-96.57h51.19z"/><path d="m792.16 555.25v111.68h-35.02v-111.68z"/><path d="m894.14 587.59c5.73 6.84 8.6 16.09 8.6 27.76v51.58h-34.86v-47.17c0-4.2-1.13-7.54-3.39-10.02-2.26-2.47-5.29-3.71-9.07-3.71s-6.94 1.24-9.15 3.71-3.31 5.81-3.31 10.02v47.17h-35.02v-88.97h35.02v13.57c2.73-4.21 6.39-7.62 10.96-10.25 4.58-2.63 10.02-3.94 16.33-3.94 10.2 0 18.17 3.42 23.9 10.25z"/><path d="m973.25 637.12v29.81h-13.25c-24.4 0-36.6-12.15-36.6-36.44v-23.35h-11.04v-29.18h11.04v-21.45h35.02v21.45h14.51v29.18h-14.51v23.98c0 2.11.5 3.63 1.5 4.58s2.66 1.42 4.97 1.42z"/><path d="m1072.31 628.6h-56.31c.53 7.68 3.73 11.51 9.62 11.51 3.79 0 6.52-1.73 8.2-5.21h37.07c-1.26 6.31-3.92 11.96-7.97 16.96s-9.15 8.94-15.3 11.83-12.91 4.34-20.27 4.34c-8.83 0-16.7-1.84-23.58-5.52-6.89-3.68-12.25-8.96-16.09-15.85s-5.76-14.96-5.76-24.21 1.92-17.32 5.76-24.21 9.2-12.17 16.09-15.85 14.75-5.52 23.58-5.52 16.69 1.81 23.58 5.44 12.25 8.81 16.09 15.54 5.76 14.67 5.76 23.82c0 2.42-.16 4.73-.47 6.94zm-35.02-15.3c0-2.94-.95-5.18-2.84-6.7s-4.26-2.29-7.1-2.29c-6.21 0-9.83 3-10.88 8.99z"/><path d="m1131.93 581.99c5.15-3.1 10.51-4.65 16.09-4.65v37.38h-9.94c-6.62 0-11.49 1.16-14.59 3.47s-4.65 6.42-4.65 12.3v36.44h-35.02v-88.97h35.02v16.41c3.57-5.15 7.94-9.28 13.09-12.38z"/><path d="m1202.6 633.65 14.2-55.68h37.23l-29.66 88.97h-43.69l-29.66-88.97h37.23z"/><path d="m1266.32 565.98c-3.68-3.26-5.52-7.36-5.52-12.3s1.84-9.23 5.52-12.54 8.57-4.97 14.67-4.97 10.83 1.66 14.51 4.97 5.52 7.49 5.52 12.54-1.84 9.05-5.52 12.3c-3.68 3.26-8.52 4.89-14.51 4.89s-10.99-1.63-14.67-4.89zm32.02 11.99v88.97h-35.02v-88.97z"/><path d="m1399.77 628.6h-56.31c.53 7.68 3.73 11.51 9.62 11.51 3.79 0 6.52-1.73 8.2-5.21h37.07c-1.26 6.31-3.92 11.96-7.97 16.96s-9.15 8.94-15.3 11.83-12.91 4.34-20.27 4.34c-8.83 0-16.7-1.84-23.58-5.52-6.89-3.68-12.25-8.96-16.09-15.85s-5.76-14.96-5.76-24.21 1.92-17.32 5.76-24.21 9.2-12.17 16.09-15.85 14.75-5.52 23.58-5.52 16.69 1.81 23.58 5.44 12.25 8.81 16.09 15.54 5.76 14.67 5.76 23.82c0 2.42-.16 4.73-.47 6.94zm-35.02-15.3c0-2.94-.95-5.18-2.84-6.7s-4.26-2.29-7.1-2.29c-6.21 0-9.83 3-10.88 8.99z"/><path d="m1546.31 577.97-21.14 88.97h-39.44l-10.73-50.16-11.36 50.16h-39.44l-20.98-88.97h34.7l7.41 54.11 11.52-54.11h37.38l12.15 54.74 7.57-54.74h32.34z"/></g></svg>