<?xml version="1.0" encoding="UTF-8"?><svg id="Layer_1" xmlns="http://www.w3.org/2000/svg" viewBox="0 0 700 700"><defs><style>.cls-1{fill:#fff;}.cls-1,.cls-2{stroke-width:0px;}.cls-2{fill:#f6851f;}</style></defs><path class="cls-2" d="m0,50v600c0,27.14,21.63,49.22,48.59,49.96V.04C21.63.78,0,22.86,0,50Z"/><path class="cls-2" d="m496.18,240.82c0-49.59-14.61-87.98-43.8-115.19-29.2-27.2-73.8-40.81-133.8-40.81h-160.81v316.81h160.81c59.19,0,103.59-14.59,133.19-43.8s44.41-68.2,44.41-117.02Z"/><polygon class="cls-2" points="157.78 489.22 157.78 700 412.55 700 289.78 489.22 157.78 489.22"/><path class="cls-2" d="m500,0h-110.35c33.24,5.19,62.96,14.26,89.13,27.22,43.59,21.61,76.2,50.81,97.8,87.61s32.41,78.8,32.41,125.98c0,57.61-16.61,108.41-49.8,152.41-33.2,44-83,73.2-149.41,87.59l129.09,215.4c91.85-18.09,161.13-99.06,161.13-196.21V200C700,89.54,610.46,0,500,0Z"/><path class="cls-1" d="m559.18,393.22c33.19-44,49.8-94.8,49.8-152.41,0-47.19-10.81-89.19-32.41-125.98s-54.2-66-97.8-87.61c-26.17-12.96-55.89-22.04-89.13-27.22H50c-.47,0-.94.02-1.41.04v699.93c.47.01.94.04,1.41.04h107.78v-210.78h132l122.77,210.78h87.45c13.3,0,26.29-1.31,38.87-3.79l-129.09-215.4c66.41-14.39,116.2-43.59,149.41-87.59Zm-401.41,8.41V84.82h160.81c60,0,104.59,13.61,133.8,40.81,29.19,27.2,43.8,65.59,43.8,115.19s-14.81,87.81-44.41,117.02-74,43.8-133.19,43.8h-160.81Z"/></svg>