<?xml version="1.0" standalone="no"?>
<!DOCTYPE svg PUBLIC "-//W3C//DTD SVG 20010904//EN"
 "http://www.w3.org/TR/2001/REC-SVG-20010904/DTD/svg10.dtd">
<svg version="1.0" xmlns="http://www.w3.org/2000/svg"
 width="4219.000000pt" height="4219.000000pt" viewBox="0 0 4219.000000 4219.000000"
 preserveAspectRatio="xMidYMid meet">
<metadata>
Created by potrace 1.14, written by Peter Selinger 2001-2017
</metadata>
<g transform="translate(0.000000,4219.000000) scale(0.100000,-0.100000)"
fill="#000000" stroke="none">
<path d="M4218 42179 c-11 -7 -15 -42155 -4 -42166 3 -3 1483 -6 3288 -6
l3283 0 3 6346 c1 3491 5 6348 10 6348 4 1 1793 2 3975 3 l3968 1 96 -165 c53
-91 104 -179 114 -197 23 -40 60 -103 77 -128 6 -11 15 -27 19 -35 6 -14 141
-246 162 -280 6 -8 22 -37 37 -65 14 -27 32 -57 39 -65 6 -8 15 -22 18 -30 4
-8 18 -33 31 -55 14 -22 31 -51 39 -65 23 -41 159 -275 247 -425 45 -77 94
-160 108 -185 14 -25 79 -137 145 -250 66 -113 175 -299 242 -415 67 -115 242
-416 388 -667 147 -251 278 -478 293 -505 15 -26 30 -52 34 -58 10 -12 561
-958 607 -1040 19 -33 39 -69 46 -80 61 -99 77 -126 77 -129 0 -4 242 -419
260 -446 6 -8 13 -22 17 -30 4 -8 115 -199 246 -425 132 -225 250 -428 262
-450 13 -22 81 -139 152 -261 71 -121 132 -227 136 -235 4 -7 16 -27 26 -44
10 -16 67 -113 126 -215 60 -102 116 -198 126 -215 10 -16 24 -41 32 -55 18
-32 176 -303 282 -485 94 -159 198 -338 410 -705 81 -140 156 -267 166 -282
10 -15 19 -30 19 -33 0 -3 16 -31 35 -61 19 -30 35 -57 35 -59 0 -3 20 -38 44
-78 23 -39 78 -133 121 -207 72 -125 153 -264 175 -300 5 -8 36 -62 70 -120
33 -58 65 -112 70 -120 6 -8 127 -217 271 -465 144 -247 287 -493 317 -545 31
-52 64 -108 73 -125 9 -16 44 -76 78 -133 33 -57 61 -105 61 -106 0 -2 31 -56
70 -120 38 -65 70 -119 70 -122 0 -2 12 -23 27 -47 32 -51 579 -988 605 -1037
10 -19 27 -48 38 -65 10 -16 25 -41 33 -55 7 -14 23 -41 34 -60 11 -19 35 -61
52 -92 l33 -58 51 -1 c29 0 1258 -1 2732 -1 2329 -1 2873 2 3145 17 97 5 274
16 310 20 19 2 71 6 115 10 44 3 98 8 120 11 81 8 141 15 175 19 19 2 60 7 90
10 30 4 66 8 80 10 14 2 50 7 80 10 30 4 62 9 70 10 8 2 51 8 95 15 116 17
138 20 155 25 8 2 38 6 65 10 28 3 68 10 90 15 22 5 58 11 80 14 22 4 65 11
95 18 30 6 59 11 63 10 5 -2 7 1 5 6 -3 9 -25 46 -671 1122 -253 421 -465 774
-471 785 -14 26 -165 276 -188 313 -10 15 -21 34 -25 42 -5 9 -111 187 -238
398 -126 210 -234 390 -240 400 -9 15 -301 503 -325 542 -30 49 -365 609 -374
625 -6 11 -128 215 -271 453 -143 238 -267 445 -276 460 -9 15 -179 299 -379
632 -199 333 -370 619 -380 635 -9 17 -36 62 -60 100 -24 39 -51 84 -60 100
-10 17 -103 172 -207 345 -104 173 -231 386 -283 473 -52 87 -105 174 -118
195 -12 20 -32 54 -45 76 -12 21 -26 46 -32 55 -55 88 -93 152 -110 181 -11
20 -42 73 -70 118 -27 46 -58 97 -68 114 -32 55 -894 1492 -1045 1743 -80 132
-150 249 -156 260 -6 11 -101 170 -211 353 -110 183 -208 346 -217 362 -10 17
-126 211 -259 432 -133 222 -251 419 -262 438 -10 19 -32 54 -48 78 -16 24
-29 45 -29 47 0 2 -73 124 -161 272 -89 147 -170 282 -179 298 -34 60 -174
293 -241 401 -38 62 -69 117 -69 123 0 6 8 11 17 11 44 0 874 202 1128 275 50
14 97 27 105 29 272 65 1046 317 1525 496 61 23 133 49 160 59 56 20 463 185
510 206 17 8 58 25 93 40 34 14 92 39 128 55 35 17 66 30 68 30 2 0 48 21 103
46 54 25 121 56 148 69 91 41 230 106 245 116 8 5 26 14 40 19 38 16 33 13
235 118 251 130 365 192 640 347 28 15 101 59 164 97 62 37 117 68 121 68 5 0
10 3 12 8 2 4 32 25 68 46 36 21 88 53 115 71 187 119 280 181 283 187 2 5 7
8 12 8 8 0 186 120 340 230 102 73 294 213 300 220 3 3 32 25 65 50 33 24 66
50 75 56 412 330 631 518 919 788 116 109 433 429 551 556 63 68 122 131 130
140 8 9 44 49 80 90 36 41 71 81 78 89 24 25 207 245 313 376 230 284 555 732
783 1080 65 99 126 192 137 207 10 15 19 30 19 34 0 4 6 15 14 23 31 34 286
464 429 721 89 161 127 234 276 530 160 319 283 585 386 830 31 74 60 144 65
155 14 31 101 249 104 260 2 6 8 21 13 35 17 40 105 274 107 285 2 6 6 17 9
25 14 36 88 252 112 330 15 47 30 92 33 100 7 20 2 4 78 250 54 177 133 454
149 520 2 8 17 71 35 140 37 148 28 109 84 355 70 310 76 338 82 370 2 17 16
86 29 155 13 69 26 139 29 155 2 17 12 75 22 130 9 55 18 109 19 120 2 11 8
49 14 85 6 36 13 83 16 105 9 64 17 119 21 139 2 10 6 44 10 75 3 31 8 63 9
71 2 9 6 43 10 75 4 33 8 71 10 85 2 14 7 52 10 85 4 33 8 71 10 85 2 14 7 54
10 90 3 36 8 81 10 100 2 19 7 69 10 110 3 41 8 95 10 120 3 25 7 81 10 125 3
44 7 98 10 120 2 22 7 103 11 180 3 77 8 165 9 195 23 346 22 1226 0 1650 -2
36 -6 121 -10 190 -3 69 -8 148 -10 175 -3 28 -7 86 -10 130 -3 44 -7 103 -10
130 -8 86 -15 163 -20 218 -3 28 -7 72 -10 97 -6 71 -15 149 -25 230 -5 41
-12 98 -15 125 -3 28 -7 61 -10 75 -2 14 -7 48 -10 75 -7 62 -14 112 -20 145
-2 14 -7 45 -10 70 -3 25 -12 83 -20 130 -8 47 -17 103 -20 125 -3 22 -10 63
-15 90 -5 28 -11 64 -14 80 -2 17 -16 91 -31 165 -15 74 -28 144 -30 156 -2
18 -8 45 -29 149 -18 83 -59 270 -71 315 -8 30 -16 66 -19 80 -3 19 -94 377
-110 435 -1 6 -8 30 -15 55 -73 266 -289 944 -336 1055 -7 17 -24 62 -38 100
-33 88 -154 400 -172 440 -7 17 -36 86 -65 155 -29 69 -64 150 -77 180 -14 30
-36 78 -48 105 -109 241 -314 655 -421 851 -29 54 -257 453 -309 542 -53 91
-178 289 -195 309 -5 7 -10 15 -10 18 0 9 -203 310 -212 313 -4 2 -8 8 -8 13
0 15 -277 394 -434 594 -39 49 -76 97 -83 105 -69 89 -344 414 -423 500 -14
15 -63 69 -110 121 -225 247 -560 582 -799 799 -52 47 -99 90 -105 95 -68 65
-439 379 -556 472 -8 6 -51 41 -95 76 -245 195 -583 441 -875 638 -170 114
-439 290 -482 314 -9 6 -57 34 -105 64 -124 76 -348 208 -413 244 -30 17 -75
43 -99 59 -25 15 -48 28 -52 28 -3 0 -44 22 -90 48 -168 97 -794 417 -979 501
-41 19 -106 49 -145 67 -113 52 -354 157 -445 194 -30 12 -68 28 -85 35 -83
37 -382 154 -575 225 -63 24 -142 53 -175 66 -155 59 -740 248 -983 318 -68
20 -127 38 -131 41 -4 2 -18 6 -32 8 -13 3 -44 11 -69 18 -25 7 -49 13 -55 15
-5 1 -68 19 -140 38 -71 20 -139 38 -150 41 -11 2 -90 22 -175 44 -85 22 -166
42 -180 45 -14 3 -83 19 -155 36 -118 27 -253 57 -360 81 -22 4 -51 11 -65 14
-14 3 -36 7 -50 10 -14 2 -70 14 -125 25 -55 11 -116 23 -135 26 -19 3 -43 7
-52 10 -10 3 -30 7 -45 10 -16 3 -73 14 -128 24 -55 11 -113 21 -130 24 -29 4
-192 32 -245 42 -14 2 -41 7 -60 10 -19 3 -62 10 -95 16 -44 8 -2804 12
-10338 12 -5654 1 -10283 -2 -10289 -5z m16727 -5114 c193 -4 379 -8 415 -10
177 -8 362 -17 420 -21 36 -3 94 -7 130 -9 207 -13 257 -17 280 -20 14 -2 63
-7 110 -10 47 -3 101 -8 120 -10 19 -2 64 -7 100 -10 36 -3 76 -8 90 -10 14
-3 52 -7 85 -10 33 -2 71 -7 85 -9 14 -3 54 -8 90 -11 36 -3 76 -8 90 -9 14
-2 49 -7 79 -11 30 -4 61 -8 70 -10 9 -1 39 -6 66 -9 28 -4 61 -8 75 -11 14
-2 43 -7 65 -10 22 -3 67 -10 100 -15 33 -5 78 -12 100 -15 22 -3 51 -8 65
-11 37 -7 57 -10 140 -25 41 -7 77 -13 80 -14 3 -1 28 -5 55 -10 57 -10 50 -9
90 -18 17 -4 41 -9 55 -11 14 -2 61 -12 105 -21 44 -9 91 -19 104 -21 12 -3
53 -12 90 -20 36 -9 76 -18 89 -20 95 -18 755 -194 857 -228 6 -2 13 -4 17 -6
4 -1 99 -33 210 -71 112 -38 210 -71 218 -73 60 -16 535 -206 675 -271 28 -12
72 -33 100 -45 170 -77 521 -257 693 -355 429 -246 853 -549 1237 -884 215
-187 630 -614 800 -822 11 -14 41 -49 66 -79 37 -45 155 -200 323 -425 23 -31
194 -287 211 -317 6 -10 42 -70 81 -135 40 -65 82 -136 94 -158 12 -22 43 -76
68 -120 65 -115 219 -426 296 -598 151 -338 287 -708 405 -1102 29 -98 99
-358 106 -397 2 -11 7 -28 10 -38 3 -10 8 -27 10 -37 2 -10 13 -61 25 -113 31
-134 29 -127 45 -210 8 -41 17 -86 20 -100 10 -44 43 -224 49 -265 4 -22 11
-65 16 -95 5 -30 12 -73 15 -95 3 -22 7 -51 10 -65 2 -14 9 -63 15 -110 6 -47
13 -102 16 -122 8 -62 12 -90 19 -163 4 -38 9 -78 11 -87 1 -10 6 -57 9 -105
3 -49 8 -99 10 -113 2 -14 6 -65 9 -115 4 -49 9 -117 11 -150 32 -354 38
-1286 10 -1690 -2 -33 -7 -105 -10 -160 -4 -55 -8 -116 -10 -135 -1 -19 -6
-73 -10 -120 -3 -47 -8 -98 -10 -115 -2 -16 -7 -59 -10 -95 -3 -36 -8 -78 -10
-95 -2 -16 -6 -57 -10 -90 -4 -33 -9 -67 -10 -76 -2 -9 -6 -40 -10 -70 -3 -30
-8 -65 -10 -79 -2 -14 -7 -45 -10 -70 -6 -41 -50 -316 -60 -365 -2 -11 -13
-67 -25 -125 -11 -58 -23 -116 -25 -130 -9 -61 -113 -497 -145 -610 -53 -189
-126 -431 -158 -520 -3 -8 -6 -19 -7 -25 -11 -44 -176 -483 -195 -517 -6 -10
-10 -22 -10 -28 0 -5 -11 -33 -24 -62 -14 -29 -36 -81 -51 -116 -14 -35 -42
-98 -62 -140 -20 -42 -36 -79 -36 -82 0 -6 -206 -412 -234 -460 -11 -19 -49
-86 -84 -148 -35 -62 -69 -120 -74 -130 -6 -9 -24 -39 -40 -67 -51 -86 -205
-324 -280 -431 -16 -23 -50 -71 -74 -106 -47 -68 -218 -293 -260 -344 -14 -17
-33 -40 -41 -50 -20 -26 -100 -123 -126 -154 -12 -14 -41 -47 -64 -75 -145
-170 -534 -569 -715 -732 -113 -102 -335 -287 -440 -367 -44 -33 -84 -64 -90
-68 -5 -5 -28 -22 -50 -38 -22 -16 -45 -34 -52 -40 -7 -5 -15 -10 -18 -10 -4
0 -13 -7 -22 -15 -51 -51 -582 -387 -795 -504 -32 -17 -82 -44 -110 -60 -218
-119 -595 -295 -858 -401 -58 -23 -118 -48 -135 -55 -61 -27 -395 -145 -565
-200 -235 -76 -243 -79 -255 -81 -5 -1 -73 -20 -150 -42 -185 -54 -535 -143
-655 -167 -8 -2 -80 -17 -160 -34 -80 -16 -156 -32 -170 -35 -14 -2 -72 -13
-130 -24 -58 -11 -123 -23 -145 -26 -22 -4 -62 -11 -90 -16 -27 -5 -66 -12
-85 -14 -19 -2 -62 -9 -95 -15 -33 -5 -80 -13 -105 -16 -25 -3 -56 -8 -70 -10
-14 -2 -45 -7 -70 -10 -49 -6 -110 -14 -150 -20 -14 -3 -52 -7 -85 -10 -33 -3
-71 -8 -85 -10 -14 -2 -50 -6 -80 -10 -30 -3 -71 -8 -90 -10 -19 -2 -66 -7
-105 -10 -38 -3 -86 -8 -105 -10 -19 -2 -66 -6 -105 -10 -38 -3 -90 -8 -115
-10 -25 -3 -88 -7 -140 -10 -52 -3 -120 -8 -150 -10 -143 -11 -318 -19 -690
-31 -129 -4 -2487 -8 -5240 -8 l-5005 -1 -3 9539 c-1 5685 2 9542 7 9545 14 9
9740 5 10146 -4z"/>
</g>
</svg>
